<mxfile host="app.diagrams.net" agent="Mozilla/5.0 (Windows NT 10.0; Win64; x64) AppleWebKit/537.36 (KHTML, like Gecko) Chrome/131.0.0.0 Safari/537.36 Edg/131.0.0.0" version="25.0.3">
  <diagram name="第 1 页" id="J4sLDNsO2chXAVfupCOh">
    <mxGraphModel dx="1426" dy="747" grid="1" gridSize="10" guides="1" tooltips="1" connect="1" arrows="1" fold="1" page="1" pageScale="1" pageWidth="827" pageHeight="1169" math="0" shadow="0">
      <root>
        <mxCell id="0" />
        <mxCell id="1" parent="0" />
        <mxCell id="gCfyBZNcQzsltZ1017RK-1" style="rounded=0;orthogonalLoop=1;jettySize=auto;html=1;entryX=0;entryY=0.25;entryDx=0;entryDy=0;" edge="1" parent="1" source="gCfyBZNcQzsltZ1017RK-2" target="gCfyBZNcQzsltZ1017RK-16">
          <mxGeometry relative="1" as="geometry" />
        </mxCell>
        <mxCell id="gCfyBZNcQzsltZ1017RK-2" value="" style="shape=image;verticalLabelPosition=bottom;labelBackgroundColor=default;verticalAlign=top;aspect=fixed;imageAspect=0;image=data:image/png,iVBORw0KGgoAAAANSUhEUgAAAIoAAABWCAYAAAAQew4wAAAAAXNSR0IArs4c6QAAAARnQU1BAACxjwv8YQUAAAAJcEhZcwAADsMAAA7DAcdvqGQAAAmiSURBVHhe7d1/bNTlHQfw9/t7d+3VXdtrrLMIKo0FawIJJppJxkKbuQQS2WADhwKKcWSY+YdmI7Nhixi26B8mI2GL/5jg+DEm4KxZnTUjgy0sM5sZy6yjjC7tZoEy6u5or7S9H897f8DV9mkLlPZ6v55Xcgl8Ps+f7z733HPP9zmiAEgKAXhA0iIBdwOYf/VVbY8FEL366vLI05LaSLaR7LIHOp+hXcgHkvwAGozR1wAsA7CIpN8eNxWSugEc8Ty+RfKE3S92eRWUYWmJZ8zTANaTnGi2mBHp0Mjz3ipxoQHyJSjD0hKfMS+CXG33Mk1SB8imgOcdsXvFJKeDMmhMnV/aLmHjdN9apk36APKaAgEet1vFICeDIqkmbsx2CFuzHpBx1Gw8rylIttudQpZzQRlMqIEwhzO5BpkuSUmQLwX93o/sXqHKqaAMJs1WSLtzbxaZmKDmoM/bRDJm9wpNTgRFkn8waXaT2Gr3cp2kds/vW1Pob0VZD0pECpcmzGESD9u9fCEp5lGPBQOBFrtXKLIaFEn+y8nUMYLL7F6+kZQUtSoUCLTavUKQ1aAMxFP7AGy06/nqysziW3lLSeFt0mUtKP3DqZ0kfmDX854UE7yl5aVem93KZ1kJyqXh5GaP3GPXC4WkHpT4FleQvXYvX816UPqGVA8kT5IM2r0Cc6S81L/OLuarWQ/KpeHkMQANdr0QGWldVTBQEN8ReXYhk6Lx5NZiCQmu/BW+1ifl7A7zVMzajBKLqSbpS54CGbZ7hUzSS1VlgR12Pd/M2owS9yW/LzIsAMX0AvH01YNWeW1WZpRIRGGVJs6j8BewExKw8tay/N6Im5WgfDqY2AHgRbte3NQNsAdQl8AOT/yYTJyoKivLybO7GQ+KJH/vUOI8kbvHBnKK0A6ihZ75+a2lpVPatLs4NFQP+Wok1nhMBQFAxosaL9l2e1lZhz1+KjIelN6BxFoQh+26c32CWmX4s8+HJv6ysa9P1cO+xFoCy0E0AKyxx4yQYiLbILzv95JvTHXmynhQLl6O/xrgI3bdmQq1GBPYcnuIPQBwcTDRAOm7Elbc7NkdQc30TNNtweANHY+YsaBEIgonAsll8plqivMgVl55rkbri3URO7PUK+ElAN8gOSN7UZKSBHfddou/iWTS7o9200E526dqnxdfTXK5hIdI1NljnPwg6UP5zLo513g7mlJQJPkvxOLr5eFJCA03O+05uUdQj0mpcW7FxG9FNxyUswNDqylvJ4FFds8pDJJ6pInDct2gfDIwMM8n/x6CeXtU0blxknp8LLk/vXBOu2ZQzvUNrYXH1+D2QIqKpJa55aWrRtcmDcrZ/vhzAH5i153iYGTW3VkRHDkiMWFQPukfeo6gC0lx65gbKrkv/bF5XFC6+wcfNobvuU80jhGeuruy9A3YxwzO9qlaxtvnQuIAAKlvj/x7dKMrOrSH5ObRNae40cPiu8pL20aC0hkZXgIPJ8cOc4qe1FQbDr4yEpQzkcGDBNePHeU4aK2rCq4kAHReiNXEA77OIniEwpkyxRZWlZUTANr/d/kFgC/bQxwHAOBP3EYA+Lj3cifJ+XbfcQCAxjzIv18cqid1ym46zgihkScvXt7ogfvsnuOkGaCRf/3v5d0AnrWbjpNGmfv54YWBY8DMHK1zCpPPsJZ/7ol1Am4h60xMQvQLcz5XxT+dGzhPYvJj/k5RE9S8dE5oDf94LjYIuI02Z2KStiybG3qdfzg78BHpzsE6E5CSSZg5jXMrevn7s7HDBNbaYxxHUuvyeeUrAYC/6+5/meAL9iDHgdTYeGf5cQDg0X/HNtNDwV6859wk4fiX7wo1pv/L9//Tv4jAR2NHOcWORONXrs4mSJ9wa+3q+wTkvDEjnaIloGXl3eXjH9f4TVf/a0D+/WCBkwFCrwEXP1IbGv8AWEtndAXgvTe64RQnA6z5am1Fs10nABzrVPCS6eskr3ERi1PwJLy6+p6KbXYdo0/h/+pffS8QcKfcipSAXV+/p+J5u542EpS3OyPhVNLrJFFU98A6gKRdaxeEJw0J7Od63jxzaQfpbm8sFoKSEF/55oLKH9o925ig7OlUsCwRPQmwfnTdKTwCTtBLPbO+7tYbunly3LPH+09HlpD4C+EeKy1EknpIb9vjCyv3271rGRcUANh7OvqsB+y2606ekoYEHAXwTrIUR56qrYraQ65nwqAAwL72yHOku/oif6kHYAvIdxKBiqNP1XLIHjEVkwYFLix5TD3G45eeWBCe1m3Vo10zKACwtz26wgMOwn1szhPqoXyNG+orxl3YNx3X/RmWJ+rDrcaHBwGM29Z1ck1mQoIbmVFG23cq0kBiO+luiMw5UgfgW5WJkGCqQUk70N5XL6aepLgCxBK778wuAScob82G+oqM/SrqTQVltD2dkXAg4S2DzBchPABiHsUQiDHnWwT1UvQXwlpHUA/BXuTC5czCG3ecr9zS2Hjtu+yna9pBmYr9pyNLCOb9rU5Gen7e+fBPz91xaSuEnVkJv9QBYNuG+qpZWTvOalAAYH975Ld5vcaROuKl4cXpfYkD7X3VonmZwLfsoRkhDYn8caKk8tXp7o1MxawHZd+pSIPn8ZhdzxfGaN2m+6rG/Zbx3n98usjned8RuZFAyO5Pl6AkwWbPaNtj91VN+isYmTLrQcGVt6D3CK6w67lOwOsb7w1vseujHWq7EEoESjdDeHqGFvrHIR0AfM2ZXKxeT1aCsvdMtM6X0kd59YNPUkcgGb//0UW3x+zWZA61xWrigcQKissBPGwv8CciIAbgb5Legpc6smlhdbc9JhuyEhQAOHA6soNkXpx9ERDzeamlN/qV/GQOtV0ImaB/firp1claABPsDpT42x61DjXniqwFBQB+8c/IQeT4laVXD/es3HBv+KjdKybX3cLPJH88vkXQh3Y9pxg8U+whQbZnFAA41BmrScQTJ3PtCYArnzKw7fGFVbvsXjHK6owCAI/WhnpouArClA/TZIqAmOCtcSH5TNZnlLS9Z6J1PoO3s35Xi9QhZe7LtXyV9Rkl7YkF4Y5AYniphHGbWbNF0v7hEjzoQjJezswoox08HfmeIV/MxA7nJE6kwG2bFlZ+YDecK3IyKLi6yE0lkjsFbc7UEwECujyhaf294V/aPWesnA1K2oH2vnqPqe0A1s7MTq56IbQSfHewpLJ5Nr9Yy2c5H5S0Q20XQsmS4GrKbAD40FS+2pfUAbKZ1Ls13eETmT67UYjyJii2N89E62TwgKFqqLGhERGVQZeIrkQJum7mORZnrP8DKjTi3sk6UoEAAAAASUVORK5CYII=;" vertex="1" parent="1">
          <mxGeometry x="42" y="176.5" width="138" height="86" as="geometry" />
        </mxCell>
        <mxCell id="gCfyBZNcQzsltZ1017RK-3" style="rounded=0;orthogonalLoop=1;jettySize=auto;html=1;" edge="1" parent="1" source="gCfyBZNcQzsltZ1017RK-4" target="gCfyBZNcQzsltZ1017RK-2">
          <mxGeometry relative="1" as="geometry" />
        </mxCell>
        <mxCell id="gCfyBZNcQzsltZ1017RK-4" value="手机终端" style="shape=image;verticalLabelPosition=bottom;labelBackgroundColor=default;verticalAlign=top;aspect=fixed;imageAspect=0;image=data:image/png,iVBORw0KGgoAAAANSUhEUgAAACAAAAAuCAYAAABJcBuEAAAAAXNSR0IArs4c6QAAAARnQU1BAACxjwv8YQUAAAAJcEhZcwAADsMAAA7DAcdvqGQAAAIQSURBVFhH7ZdPaxNBGIef2T9dNphCrERRBKkHzx7UY70IQq1e/QbWrxCETQ66HyDH3vWQm1cPQuMh7aEXvQT01oOwG2MK3Wy2szMeNLC7SNpUMQH3gWHh/b3z8uN9Z2EG/ndEMXBOBECj0bhi2/YYoNlsjgCEELqYnOWvGPA8zwBIEvlCKfUQwDCMjwC+//JZMT+LUQz8a8xi4DzU63UjCAKxtnbpjm2br03TeC9V+lSjL9/f2Kh0u9394p4pC+9A7gx4nrcCoJS6/evrZPXfoAAsy/rEz/x7UqrHAKYp3gGcSNmKjo/vArTb7Ul+e8aA53krk0myA5Aq9QBAiNkdEsLQAFrrbwC2ZT7XWn8BsG17CJCm6fV+v/8ZoNPppPkKyzQCz/OuKqX3AdxK5Vou6xTieKwBTpJkx/f9mb9dkaXqwI319ZsHAFtbj2q5rFPodj8A0Ov13vr+qydFfRa5DjiOg+M41Gq1uZbruriumy11ZhY+gtJAaaA0UBooDZQGSgOlgdJA7lKqNAcA1eqFuS6lUTQGYBLHf3YpXQRZAzKO4ySO4yQMB0xXEITDIAiHR6PR5tFotDkIw72sHoYDoigiiiI0+num3plYng6srq4OLNPYtUxjN59CFahKmW5LmW5ruFXQEUIcCiEOTcN4U9ROo/g8vwggpZzrEFqWNX12f221WrIgz2ThIygpKfkBNJfLXiOnPX8AAAAASUVORK5CYII=;" vertex="1" parent="1">
          <mxGeometry x="20" y="372.5" width="32" height="46" as="geometry" />
        </mxCell>
        <mxCell id="gCfyBZNcQzsltZ1017RK-5" style="edgeStyle=orthogonalEdgeStyle;rounded=0;orthogonalLoop=1;jettySize=auto;html=1;" edge="1" parent="1" source="gCfyBZNcQzsltZ1017RK-6" target="gCfyBZNcQzsltZ1017RK-2">
          <mxGeometry relative="1" as="geometry" />
        </mxCell>
        <mxCell id="gCfyBZNcQzsltZ1017RK-6" value="电脑终端" style="shape=image;verticalLabelPosition=bottom;labelBackgroundColor=default;verticalAlign=top;aspect=fixed;imageAspect=0;image=data:image/png,iVBORw0KGgoAAAANSUhEUgAAAC4AAAAmCAYAAAC76qlaAAAAAXNSR0IArs4c6QAAAARnQU1BAACxjwv8YQUAAAAJcEhZcwAADsMAAA7DAcdvqGQAAALbSURBVFhH7ZhBaxNRFIXPfWkaxBapptS2oi24iMZuFDdKVkV3/RNZiC5FXTU6aZMQBP9Al678ERWUEl1IsYrtqoIiBEoRTDfpNJ15x8W8yMtoSBtDk5Z8cMm797xhTm7ezOQNcEyRcKHTkBQAyGaz52q12qHPNzg4uA8ACwsLFbuu7OQ4cegOHBbHcS4DgNb6fZuN+gYAuVzupl38y3ihUBgDANd1E2GtHZRSpwDA9/1kvSYiewCGECylrIjE7GNsSJYBIJ/PX7Dr7XSgJ2joeD6fn3RddxUABgYGRiORCG29U/i+rzzP2zLpU6XUDKwL2aIK4DyCpZK2hYaJjuNc9X1/HQBSqdR+PB7Xtt4pNjY2sLm5GUOwbB5qre+Z8enQ1M8mkMvlntnCyVgqmUwmKSLrAJBOpzE1NWXLHWN5eXmvVCpFESyPJ1rreQQX8tnQ1A8i8hoAFhcX522hFzruKqVKSqkSgLd2iMgnANpEA103LiIRAHETo3aQvE1yjuRc+LiuG2+XrhsnGdVaJ7TWCQBJAEmSEyQnALha62Gt9XD4uK4bb8IKgBWl1GMAv0w00KvGW9KrxmcBzPq+/9K6WBvoSeMiMmTioohEzJ2ngZ40fhD6xo+avvGjpheMeyKyLSLbJH+QrDR76Nj8ayPxBQDGx8dVLNZ0K/hfVCoVvbOzU2/aA3Pfhohsaa1vAPBMnjrZe85CoTC6u7u7YtJpW6sjIiAZFZFWX9on6YkEpyD55yEiIgTw3Yyfk7xrxl9J3iK5b/I7zToe3pw2xXGcQQDwPG9SKfWI5PXwHBul1JtarfYiFouNIHivkq9rIvKO5IxJtwBcMfXOGl9aWoqWy+UMgs5dC+vNIOmLyEeTFi1pleSYGa8DGENg9KfWelpEfJMnmhlv9XP3LAfqeLFYHKlWq2smvRSSW/HKfJ4x27P6LyH1sdVAHfpDpQCsIXg9cd+q9+nTp0+fgN8tDC6pVcJ+3AAAAABJRU5ErkJggg==;" vertex="1" parent="1">
          <mxGeometry x="88" y="380.5" width="46" height="38" as="geometry" />
        </mxCell>
        <mxCell id="gCfyBZNcQzsltZ1017RK-7" style="rounded=0;orthogonalLoop=1;jettySize=auto;html=1;entryX=0.638;entryY=0.988;entryDx=0;entryDy=0;entryPerimeter=0;" edge="1" parent="1" source="gCfyBZNcQzsltZ1017RK-8" target="gCfyBZNcQzsltZ1017RK-2">
          <mxGeometry relative="1" as="geometry" />
        </mxCell>
        <mxCell id="gCfyBZNcQzsltZ1017RK-8" value="电脑终端" style="shape=image;verticalLabelPosition=bottom;labelBackgroundColor=default;verticalAlign=top;aspect=fixed;imageAspect=0;image=data:image/png,iVBORw0KGgoAAAANSUhEUgAAAC4AAAAmCAYAAAC76qlaAAAAAXNSR0IArs4c6QAAAARnQU1BAACxjwv8YQUAAAAJcEhZcwAADsMAAA7DAcdvqGQAAALbSURBVFhH7ZhBaxNRFIXPfWkaxBapptS2oi24iMZuFDdKVkV3/RNZiC5FXTU6aZMQBP9Al678ERWUEl1IsYrtqoIiBEoRTDfpNJ15x8W8yMtoSBtDk5Z8cMm797xhTm7ezOQNcEyRcKHTkBQAyGaz52q12qHPNzg4uA8ACwsLFbuu7OQ4cegOHBbHcS4DgNb6fZuN+gYAuVzupl38y3ihUBgDANd1E2GtHZRSpwDA9/1kvSYiewCGECylrIjE7GNsSJYBIJ/PX7Dr7XSgJ2joeD6fn3RddxUABgYGRiORCG29U/i+rzzP2zLpU6XUDKwL2aIK4DyCpZK2hYaJjuNc9X1/HQBSqdR+PB7Xtt4pNjY2sLm5GUOwbB5qre+Z8enQ1M8mkMvlntnCyVgqmUwmKSLrAJBOpzE1NWXLHWN5eXmvVCpFESyPJ1rreQQX8tnQ1A8i8hoAFhcX522hFzruKqVKSqkSgLd2iMgnANpEA103LiIRAHETo3aQvE1yjuRc+LiuG2+XrhsnGdVaJ7TWCQBJAEmSEyQnALha62Gt9XD4uK4bb8IKgBWl1GMAv0w00KvGW9KrxmcBzPq+/9K6WBvoSeMiMmTioohEzJ2ngZ40fhD6xo+avvGjpheMeyKyLSLbJH+QrDR76Nj8ayPxBQDGx8dVLNZ0K/hfVCoVvbOzU2/aA3Pfhohsaa1vAPBMnjrZe85CoTC6u7u7YtJpW6sjIiAZFZFWX9on6YkEpyD55yEiIgTw3Yyfk7xrxl9J3iK5b/I7zToe3pw2xXGcQQDwPG9SKfWI5PXwHBul1JtarfYiFouNIHivkq9rIvKO5IxJtwBcMfXOGl9aWoqWy+UMgs5dC+vNIOmLyEeTFi1pleSYGa8DGENg9KfWelpEfJMnmhlv9XP3LAfqeLFYHKlWq2smvRSSW/HKfJ4x27P6LyH1sdVAHfpDpQCsIXg9cd+q9+nTp0+fgN8tDC6pVcJ+3AAAAABJRU5ErkJggg==;" vertex="1" parent="1">
          <mxGeometry x="160" y="380.5" width="46" height="38" as="geometry" />
        </mxCell>
        <mxCell id="gCfyBZNcQzsltZ1017RK-9" value="" style="shape=image;verticalLabelPosition=bottom;labelBackgroundColor=default;verticalAlign=top;imageAspect=0;image=data:image/png,iVBORw0KGgoAAAANSUhEUgAAAosAAADrCAYAAAABgdxkAAAAAXNSR0IArs4c6QAAAARnQU1BAACxjwv8YQUAAAAJcEhZcwAADsMAAA7DAcdvqGQAAARYSURBVHhe7dYxDUJBFADBO4IKHOBfDA6+CpJHRXNhFTBTroLdMzMLAAB+2DMz7+t1dgAA/tz98Vy3MwIAwJdZBAAgmUUAAJJZBAAgmUUAAJJZBAAgmUUAAJJZBAAgmUUAAJJZBAAgmUUAAJJZBAAgmUUAAJJZBAAgmUUAAJJZBAAgmUUAAJJZBAAgmUUAAJJZBAAgmUUAAJJZBAAgmUUAAJJZBAAgmUUAAJJZBAAgmUUAAJJZBAAgmUUAAJJZBAAgmUUAAJJZBAAgmUUAAJJZBAAgmUUAAJJZBAAgmUUAAJJZBAAgmUUAAJJZBAAgmUUAAJJZBAAgmUUAAJJZBAAgmUUAAJJZBAAgmUUAAJJZBAAgmUUAAJJZBAAgmUUAAJJZBAAgmUUAAJJZBAAgmUUAAJJZBAAgmUUAAJJZBAAgmUUAAJJZBAAgmUUAAJJZBAAgmUUAAJJZBAAgmUUAAJJZBAAgmUUAAJJZBAAgmUUAAJJZBAAgmUUAAJJZBAAgmUUAAJJZBAAgmUUAAJJZBAAgmUUAAJJZBAAgmUUAAJJZBAAgmUUAAJJZBAAgmUUAAJJZBAAgmUUAAJJZBAAgmUUAAJJZBAAgmUUAAJJZBAAgmUUAAJJZBAAgmUUAAJJZBAAgmUUAAJJZBAAgmUUAAJJZBAAgmUUAAJJZBAAgmUUAAJJZBAAgmUUAAJJZBAAgmUUAAJJZBAAgmUUAAJJZBAAgmUUAAJJZBAAgmUUAAJJZBAAgmUUAAJJZBAAgmUUAAJJZBAAgmUUAAJJZBAAgmUUAAJJZBAAgmUUAAJJZBAAgmUUAAJJZBAAgmUUAAJJZBAAgmUUAAJJZBAAgmUUAAJJZBAAgmUUAAJJZBAAgmUUAAJJZBAAgmUUAAJJZBAAgmUUAAJJZBAAgmUUAAJJZBAAgmUUAAJJZBAAgmUUAAJJZBAAgmUUAAJJZBAAgmUUAAJJZBAAgmUUAAJJZBAAgmUUAAJJZBAAgmUUAAJJZBAAgmUUAAJJZBAAgmUUAAJJZBAAgmUUAAJJZBAAgmUUAAJJZBAAgmUUAAJJZBAAgmUUAAJJZBAAgmUUAAJJZBAAgmUUAAJJZBAAgmUUAAJJZBAAgmUUAAJJZBAAgmUUAAJJZBAAgmUUAAJJZBAAgmUUAAJJZBAAgmUUAAJJZBAAgmUUAAJJZBAAgmUUAAJJZBAAgmUUAAJJZBAAgmUUAAJJZBAAgmUUAAJJZBAAgmUUAAJJZBAAgmUUAAJJZBAAgmUUAAJJZBAAgmUUAAJJZBAAgmUUAAJJZBAAgmUUAAJJZBAAgmUUAAJJZBAAgmUUAAJJZBAAgmUUAAJJZBAAgmUUAAJJZBAAgmUUAAJJZBAAgmUUAAJJZBAAgmUUAAJJZBAAgmUUAAJJZBAAgmUUAAJJZBAAgmUUAAJJZBAAgmUUAAJJZBAAgmUUAAJJZBAAgmUUAAJJZBAAgmUUAAJJZBAAg7ZmZMwIAwFprfQDJEhDIjsPoCwAAAABJRU5ErkJggg==;" vertex="1" parent="1">
          <mxGeometry x="330" y="240" width="600" height="190" as="geometry" />
        </mxCell>
        <mxCell id="gCfyBZNcQzsltZ1017RK-10" value="" style="shape=image;verticalLabelPosition=bottom;labelBackgroundColor=default;verticalAlign=top;imageAspect=0;image=data:image/png,iVBORw0KGgoAAAANSUhEUgAAAkMAAADaCAYAAAClz0Y5AAAAAXNSR0IArs4c6QAAAARnQU1BAACxjwv8YQUAAAAJcEhZcwAADsMAAA7DAcdvqGQAAAPlSURBVHhe7dZBAcJAAMTAHibwgX8N+EDF9l8JZOYZBTnbdgEARJ1tu37fZwcA+H/vz/V6NgCAEjMEAKSZIQAgzQwBAGlmCABIM0MAQJoZAgDSzBAAkGaGAIA0MwQApJkhACDNDAEAaWYIAEgzQwBAmhkCANLMEACQZoYAgDQzBACkmSEAIM0MAQBpZggASDNDAECaGQIA0swQAJBmhgCANDMEAKSZIQAgzQwBAGlmCABIM0MAQJoZAgDSzBAAkGaGAIA0MwQApJkhACDNDAEAaWYIAEgzQwBAmhkCANLMEACQZoYAgDQzBACkmSEAIM0MAQBpZggASDNDAECaGQIA0swQAJBmhgCANDMEAKSZIQAgzQwBAGlmCABIM0MAQJoZAgDSzBAAkGaGAIA0MwQApJkhACDNDAEAaWYIAEgzQwBAmhkCANLMEACQZoYAgDQzBACkmSEAIM0MAQBpZggASDNDAECaGQIA0swQAJBmhgCANDMEAKSZIQAgzQwBAGlmCABIM0MAQJoZAgDSzBAAkGaGAIA0MwQApJkhACDNDAEAaWYIAEgzQwBAmhkCANLMEACQZoYAgDQzBACkmSEAIM0MAQBpZggASDNDAECaGQIA0swQAJBmhgCANDMEAKSZIQAgzQwBAGlmCABIM0MAQJoZAgDSzBAAkGaGAIA0MwQApJkhACDNDAEAaWYIAEgzQwBAmhkCANLMEACQZoYAgDQzBACkmSEAIM0MAQBpZggASDNDAECaGQIA0swQAJBmhgCANDMEAKSZIQAgzQwBAGlmCABIM0MAQJoZAgDSzBAAkGaGAIA0MwQApJkhACDNDAEAaWYIAEgzQwBAmhkCANLMEACQZoYAgDQzBACkmSEAIM0MAQBpZggASDNDAECaGQIA0swQAJBmhgCANDMEAKSZIQAgzQwBAGlmCABIM0MAQJoZAgDSzBAAkGaGAIA0MwQApJkhACDNDAEAaWYIAEgzQwBAmhkCANLMEACQZoYAgDQzBACkmSEAIM0MAQBpZggASDNDAECaGQIA0swQAJBmhgCANDMEAKSZIQAgzQwBAGlmCABIM0MAQJoZAgDSzBAAkGaGAIA0MwQApJkhACDNDAEAaWYIAEgzQwBAmhkCANLMEACQZoYAgDQzBACkmSEAIM0MAQBpZggASDNDAECaGQIA0swQAJBmhgCANDMEAKSZIQAgzQwBAGlmCABIM0MAQJoZAgDSzBAAkGaGAIA0MwQApJkhACDNDAEAaWYIAEgzQwBAmhkCANLMEACQZoYAgDQzBACkmSEAIM0MAQBpZggASDNDAEDa2bZnBAAAACDgBj56D6Q/VI2TAAAAAElFTkSuQmCC;" vertex="1" parent="1">
          <mxGeometry x="340" y="250" width="579" height="180" as="geometry" />
        </mxCell>
        <mxCell id="gCfyBZNcQzsltZ1017RK-11" value="" style="shape=image;verticalLabelPosition=bottom;labelBackgroundColor=default;verticalAlign=top;imageAspect=0;image=data:image/png,iVBORw0KGgoAAAANSUhEUgAAAIQAAAClCAYAAACdtFU0AAAAAXNSR0IArs4c6QAAAARnQU1BAACxjwv8YQUAAAAJcEhZcwAADsMAAA7DAcdvqGQAAAGNSURBVHhe7dKxAYQgAMBAcP8d/cIaRuDruIJ3ZerMvfcZMMY45/yud+TbDEEYgjAEYQjCEIQhCEMQhiAMQRiCMARhCMIQhCEIQxCGIAxBGIIwBGEIwhCEIQhDEIYgDEEYgjAEYQjCEIQhCEMQhiAMQRiCMARhCMIQhCEIQxCGIAxBGIIwBGEIwhCEIQhDEIYgDEEYgjAEYQjCEIQhCEMQhiAMQRiCMARhCMIQhCEIQxCGIAxBGIIwBGEIwhCEIQhDEIYgDEEYgjAEYQjCEIQhCEMQhiAMQRiCMARhCMIQhCEIQxCGIAxBGIIwBGEIwhCEIQhDEIYgDEEYgjAEYQjCEIQhCEMQhiAMQRiCMARhCMIQhCEIQxCGIAxBGIIwBGEIwhCEIQhDEIYgDEEYgjAEYQjCEIQhCEMQhiAMQRiCMARhCMIQhCEIQxCGIAxBGIIwBGEIwhCEIQhDEIYgDEEYgjAEYQjCEIQhCEMQhiAMQRiCMARhCMIQhCEIQxCGIAxBGIKYa637HfmmOefzBxAzDYKa2hIDAAAAAElFTkSuQmCC;" vertex="1" parent="1">
          <mxGeometry x="348" y="253.5" width="262" height="165" as="geometry" />
        </mxCell>
        <mxCell id="gCfyBZNcQzsltZ1017RK-12" style="edgeStyle=orthogonalEdgeStyle;rounded=0;orthogonalLoop=1;jettySize=auto;html=1;entryX=0;entryY=0.5;entryDx=0;entryDy=0;dashed=1;" edge="1" parent="1" source="gCfyBZNcQzsltZ1017RK-13" target="gCfyBZNcQzsltZ1017RK-21">
          <mxGeometry relative="1" as="geometry" />
        </mxCell>
        <mxCell id="gCfyBZNcQzsltZ1017RK-13" value="Web应用服务器" style="shape=image;verticalLabelPosition=bottom;labelBackgroundColor=none;verticalAlign=top;imageAspect=0;image=data:image/png,iVBORw0KGgoAAAANSUhEUgAAABgAAAAUCAYAAACXtf2DAAAAAXNSR0IArs4c6QAAAARnQU1BAACxjwv8YQUAAAAJcEhZcwAADsMAAA7DAcdvqGQAAAGgSURBVEhLtZNPKARRHMe/bwZjNbOstUiEssU4uKzI1UEpjpSLErmQFEmtNCSH3ZRoD/5c5KIcHLhx40Cbi1xsLRc1+S+72p39Mw67O9nXTs3Ifurb6337vt+39+oBeYYAwOTkOucH5w1EhD5FJTwdMgrPxOWu0qflQ8/MQcYjADA1t9qw+1x/raDAlnXiD3BM/ONrZ0ibk7rB/Iq4JTtvVAImKw2AZQi2R9ppGyM7V7SlMVF361iTpBcAqYEJliW5hgMAQwiisSRCkbimbyVBx3TJOZTmMviKaDypafM0QEd0MVTgEDg0VfKaLIWGjgFGC87vXuA7C2h6Cyl0RBdDBQMddfANuzTV2kvoiC6GCu6fw9i7eNBUU2ahI7oYKvAMtsHdL8LdL6KCL8J7+J+f6DeCpRBV1mLa1sV0QbdYhdneZtrWxXRBdWkxWmqstK2L6QKz5L2AAMD04mL5kdx48hgr6aQDZmDVZLSV/9z3b4yPZjySWlQytrDkCr7be2IFMP6LKGyMEnQKn8deSZIzXrogjapm781CCACotJ1XfgAwaH+oNXT/9AAAAABJRU5ErkJggg==;fontSize=10;" vertex="1" parent="1">
          <mxGeometry x="520" y="323.84" width="30" height="26" as="geometry" />
        </mxCell>
        <mxCell id="gCfyBZNcQzsltZ1017RK-14" value="" style="shape=image;verticalLabelPosition=bottom;labelBackgroundColor=default;verticalAlign=top;imageAspect=0;image=data:image/png,iVBORw0KGgoAAAANSUhEUgAAAaYAAACmCAYAAACRBiu3AAAAAXNSR0IArs4c6QAAAARnQU1BAACxjwv8YQUAAAAJcEhZcwAADsMAAA7DAcdvqGQAAAKfSURBVHhe7dWhAYNAAMBAHl08lv2Hwr4vutSzABF3Mgtk3Ne8FwAIGJ99rM8IAG8yJgBSjAmAFGMCIMWYAEgxJgBSjAmAFGMCIMWYAEgxJgBSjAmAFGMCIMWYAEgxJgBSjAmAFGMCIMWYAEgxJgBSjAmAFGMCIMWYAEgxJgBSjAmAFGMCIMWYAEgxJgBSjAmAFGMCIMWYAEgxJgBSjAmAFGMCIMWYAEgxJgBSjAmAFGMCIMWYAEgxJgBSjAmAFGMCIMWYAEgxJgBSjAmAFGMCIMWYAEgxJgBSjAmAFGMCIMWYAEgxJgBSjAmAFGMCIMWYAEgxJgBSjAmAFGMCIMWYAEgxJgBSjAmAFGMCIMWYAEgxJgBSjAmAFGMCIMWYAEgxJgBSjAmAFGMCIMWYAEgxJgBSjAmAFGMCIMWYAEgxJgBSjAmAFGMCIMWYAEgxJgBSjAmAFGMCIMWYAEgxJgBSjAmAFGMCIMWYAEgxJgBSjAmAFGMCIMWYAEgxJgBSjAmAFGMCIMWYAEgxJgBSjAmAFGMCIMWYAEgxJgBSjAmAFGMCIMWYAEgxJgBSjAmAFGMCIMWYAEgxJgBSjAmAFGMCIMWYAEgxJgBSjAmAFGMCIMWYAEgxJgBSjAmAFGMCIMWYAEgxJgBSjAmAFGMCIMWYAEgxJgBSjAmAFGMCIMWYAEgxJgBSjAmAFGMCIMWYAEgxJgBSjAmAFGMCIMWYAEgxJgBSjAmAFGMCIMWYAEgxJgBSjAmAFGMCIMWYAEgxJgBSjAmAFGMCIMWYAEgxJgBSjAmAFGMCIMWYAEgxJgBSjAmAFGMCIMWYAEgxJgBSjAmAFGMCIMWYAEgxJgBSjAmAFGMCIMWYAEgxJgBSjAmAFGMCIGX8vvN8RgB4w7rtxx/t+glL4UFu+QAAAABJRU5ErkJggg==;" vertex="1" parent="1">
          <mxGeometry x="620" y="253.67" width="292.84" height="166.33" as="geometry" />
        </mxCell>
        <mxCell id="gCfyBZNcQzsltZ1017RK-15" style="edgeStyle=orthogonalEdgeStyle;rounded=0;orthogonalLoop=1;jettySize=auto;html=1;entryX=0;entryY=0.5;entryDx=0;entryDy=0;" edge="1" parent="1" source="gCfyBZNcQzsltZ1017RK-16" target="gCfyBZNcQzsltZ1017RK-19">
          <mxGeometry relative="1" as="geometry" />
        </mxCell>
        <mxCell id="gCfyBZNcQzsltZ1017RK-16" value="互联网出口" style="shape=image;verticalLabelPosition=bottom;labelBackgroundColor=none;verticalAlign=top;aspect=fixed;imageAspect=0;image=data:image/png,iVBORw0KGgoAAAANSUhEUgAAAB4AAAAaCAYAAACgoey0AAAAAXNSR0IArs4c6QAAAARnQU1BAACxjwv8YQUAAAAJcEhZcwAADsMAAA7DAcdvqGQAAAOxSURBVEhL7ZRbTBxVGIC/M7MzzLIsEEVu6YJSa2nU0ITYVluNfVBSowlNqKwx8ZoYL9EmWrRGTdnW+FC8BJtGjDapT9AYxMCLkRrSVYNo0y6xVQE1Urq1LVgopQywuzM+LDO7swxtTai++CUnOf/t/POf+c8P/xHC2jyx/a3bJxLajU7z0pAjEmM3eKd6Q6HQhKUTAM+8sbN6X7TysMP7KrDKO3Ggf+9TQazEwZeb6j4bK//UchACTDM9BGrEMe4Vx53KNLYbdcSQM9UOStSLfcMtj68DkADipnBENNbeQrbqPGSDGOIh6btFlwfD4e+KKUnWVgDUNbxd3/lXWZul/HzrBmpuLWYubpL3dDsAAc5RIUYtlwV8bd6EkWoZV0oU/YfhDx9dg1VxJvu/+QNJCDRFwiMlD6uVjtAqt9Aqt/CJ/DEC05Zb5RYUEpnHXBLXxIZh8n73IOGBUYryNAAKuWDbVeIUMZkWARKppvBrHofNDVePzqNROo9GHbr95nqOG6W2/CuFvGgEbXkWD5url9FwXyWaInF9gY/2wyfZ1hbh/HTM9rNwrRgg16vgkVP/rF58z7tSm7265GaHrBInW5Upys3i2pwsFFmiNF/DrymOcy0WTbzltgDbNlXaspeFX52OALoip7hn9yEe+6iP19t/5MG9vZw8N53pCotd9ey+LfZen0vQ/OUgXWYVPnMWgDk8fGBsZKvUbfvNIaPrMSb1GL+PTtHz81nb5oZrxWtD3ezpHiI6rrPn4BAAD4h+gqKPoOjjEfEt6/jNloOiDzWtqyuu81GSn2zKxXBNHDkxQWckyv3vhTGMjBF2CVYU+3n4jnJqq5fR8cKdrC7Pz3SxcU0MEP5llJ+iqSfTSwVhc6W9NktHHHIcCa8iU+jP4hqfileVyNUU5Pk5kInr5CrO08jPVsnRPAyevsCkHmOX1MGTUtgRnM7y+G50kh1cXuBjJpbgzPkZh89lJ9dLm1by1St30/PqxkzTFREdn16QNBPXxPVrysj1Kvw5rjOpJ5/REEX0mwH6zQARs4y6xLO23G8GSKTN6Xji8n3hmliPJWjsOMbanQdt3QrOUCVGqBIjrBYnCDBuy1ViBDltZF4Jrolrmg7xzhcDjF+cs3XpFTH/btP5Z2nnm6thx47S5pGbncP5KrDePxrqaX6uEaviplDoVK4cG5bNRHI0LTFeER9bpU0cuCv/7JuWzr6/51/btXwqrpSYpsdrRywRPjV2ukCeGQiFQql/9z//Fn8DordPlX3+aZAAAAAASUVORK5CYII=;fontSize=9;" vertex="1" parent="1">
          <mxGeometry x="320" y="323" width="30" height="26" as="geometry" />
        </mxCell>
        <mxCell id="gCfyBZNcQzsltZ1017RK-17" value="" style="shape=image;verticalLabelPosition=bottom;labelBackgroundColor=default;verticalAlign=top;aspect=fixed;imageAspect=0;image=data:image/png,iVBORw0KGgoAAAANSUhEUgAAAC4AAAAXCAYAAAB0zH1SAAAAAXNSR0IArs4c6QAAAARnQU1BAACxjwv8YQUAAAAJcEhZcwAADsMAAA7DAcdvqGQAAAGwSURBVFhH7ZUxkhMxEEX/n1NISlzlCB9h44WEA1BbNZGdkJA6JABCzrA2CVUUB9hgFyckHIGNcG1RNT2n0CdYCWQx2LsJkV40+t2j6W61eoBGo9FoAGAtZLz3zwBcF9LezOZ54Zy7JLkys4M9ivcWJM8kbUo7AJgZnXNfSJ7Xtoyk3TiOT2s909VCiaSdmTEF99J7L+/9k8JlH0JYFmtIugCwB4BhGLb5fTOjpB3JVeG+KO3pOwtJm2NB41TgJWZ2Q3IlaZ01SR9ijP2hJ2aSflQacoLDMGxL3Xt/4CtpTfJ9qU3x4MBxv+k3ALO87rruJ8l5PoUQwrLruo8kf7dU5kgVn+eTTMndmdlt7VTzqMCnIPmO5BkAxBj7uqIo7kOt4/4kb1OLXMUY+3Ec39Y+UzwqcEkvAHwttWEYtjHGPlX9wIY/LTKbSiiTT4zkebrcJ3lw4CGEJck3/6jIXerNz7VB0obkq1rPpMSuzGyeKn9dX/gpjgaeKiDvvSS9rkdfhuQnALO6N51zl+nxe97He69sl7SOMfblmE3T568RWjMZyP/g1Byv/xuNRqPRmOQXvFPguI4nckwAAAAASUVORK5CYII=;" vertex="1" parent="1">
          <mxGeometry x="348" y="253" width="46" height="23" as="geometry" />
        </mxCell>
        <mxCell id="gCfyBZNcQzsltZ1017RK-18" style="edgeStyle=orthogonalEdgeStyle;rounded=0;orthogonalLoop=1;jettySize=auto;html=1;entryX=0;entryY=0.5;entryDx=0;entryDy=0;dashed=1;" edge="1" parent="1" source="gCfyBZNcQzsltZ1017RK-19" target="gCfyBZNcQzsltZ1017RK-13">
          <mxGeometry relative="1" as="geometry" />
        </mxCell>
        <mxCell id="gCfyBZNcQzsltZ1017RK-19" value="NG代理服务器" style="shape=image;verticalLabelPosition=bottom;labelBackgroundColor=none;verticalAlign=top;imageAspect=0;image=data:image/png,iVBORw0KGgoAAAANSUhEUgAAABgAAAAUCAYAAACXtf2DAAAAAXNSR0IArs4c6QAAAARnQU1BAACxjwv8YQUAAAAJcEhZcwAADsMAAA7DAcdvqGQAAAKWSURBVEhL1ZNZSFRhFMd/9zpzdZzbNEw6KQaiaGCUSVYwEUmIZJD5YiFFVNBClliRYA9RD2UPpYbYUzJhiyQULQYh1UNZCTJlK5VpZgsTLaKC4zJ2vx5srjM3ywV66Af34Z7zP+f/LeeDf4wEkF5QXd/Zr2ZpkhxuFEwGi+T3LrJ9Lb1SsbsqEJMAojZfGJhKc1mWWDE/lig1HIti4tTtNygMd3nd62boGoCpNAfQNEHWvFhObFrIoTWpCGAQkyNYIwf/jIXdqtBemUt7ZS6yJOnxrZlJNB3OZq0rnh7fEMXnH4XUBRjXQPplYrcqesweqXAkP40Ep5WS2hZONrRSe68jpC7AuAZGXLOjuXUgk4YnXpYdvMm5xg7Kr79ECKNyhDENZEnCoY59Lc1t38grb2RD1X1avb1EKiYUc5hRpmMCyF8ST8osux6UJYiPsrL3zEM0w9J+aIKP3/uwWcwAOFSF9UsTOVb/gqFhLURLwCA7LY6c9DhjDjXCzJ4ajzHM8rkx1Ox0ASAhYTbJqBYT+2tbjNKRd5Cw67IIN41uU5YlnLZwnn/oYXqkmbbKXACit1zUdxQYKJvFjBph5lOXT6/vcq/Vx00G6PH5+dI7oH+fu/t5+r77t+MBiLFbcO9wESZLCDFSG9zcyJiX/DeyUmPISHGyMSMRhzo6un9i0gZn73aQXHSNBQkOXlWs5tnxVXiOrsSVHG2UwkQMhoY16po6qWvqRDByZJoQFLo9FJ72IIQgwamyLyfFWAoTMegbHKagupmC6uaQx6QJQd2Dd9TceQvA4qSo0WQQMoAtbLDdmJgolTdeE7v9EklFVwGYE9ntDs5LANtKSl1tPnueX8jTgpOTZaYy8Dgef01ZWXGfMff/8hMc9NDTOnUQkgAAAABJRU5ErkJggg==;fontSize=10;" vertex="1" parent="1">
          <mxGeometry x="414" y="323.84" width="30" height="26" as="geometry" />
        </mxCell>
        <mxCell id="gCfyBZNcQzsltZ1017RK-20" style="edgeStyle=orthogonalEdgeStyle;rounded=0;orthogonalLoop=1;jettySize=auto;html=1;dashed=1;entryX=0;entryY=0.5;entryDx=0;entryDy=0;" edge="1" parent="1" source="gCfyBZNcQzsltZ1017RK-21" target="gCfyBZNcQzsltZ1017RK-23">
          <mxGeometry relative="1" as="geometry">
            <mxPoint x="700" y="336.8399999999999" as="targetPoint" />
          </mxGeometry>
        </mxCell>
        <mxCell id="gCfyBZNcQzsltZ1017RK-21" value="防火墙" style="shape=image;verticalLabelPosition=bottom;labelBackgroundColor=none;verticalAlign=top;aspect=fixed;imageAspect=0;image=data:image/png,iVBORw0KGgoAAAANSUhEUgAAAB4AAAAaCAYAAACgoey0AAAAAXNSR0IArs4c6QAAAARnQU1BAACxjwv8YQUAAAAJcEhZcwAADsMAAA7DAcdvqGQAAAOxSURBVEhL7ZRbTBxVGIC/M7MzzLIsEEVu6YJSa2nU0ITYVluNfVBSowlNqKwx8ZoYL9EmWrRGTdnW+FC8BJtGjDapT9AYxMCLkRrSVYNo0y6xVQE1Urq1LVgopQywuzM+LDO7swxtTai++CUnOf/t/POf+c8P/xHC2jyx/a3bJxLajU7z0pAjEmM3eKd6Q6HQhKUTAM+8sbN6X7TysMP7KrDKO3Ggf+9TQazEwZeb6j4bK//UchACTDM9BGrEMe4Vx53KNLYbdcSQM9UOStSLfcMtj68DkADipnBENNbeQrbqPGSDGOIh6btFlwfD4e+KKUnWVgDUNbxd3/lXWZul/HzrBmpuLWYubpL3dDsAAc5RIUYtlwV8bd6EkWoZV0oU/YfhDx9dg1VxJvu/+QNJCDRFwiMlD6uVjtAqt9Aqt/CJ/DEC05Zb5RYUEpnHXBLXxIZh8n73IOGBUYryNAAKuWDbVeIUMZkWARKppvBrHofNDVePzqNROo9GHbr95nqOG6W2/CuFvGgEbXkWD5url9FwXyWaInF9gY/2wyfZ1hbh/HTM9rNwrRgg16vgkVP/rF58z7tSm7265GaHrBInW5Upys3i2pwsFFmiNF/DrymOcy0WTbzltgDbNlXaspeFX52OALoip7hn9yEe+6iP19t/5MG9vZw8N53pCotd9ey+LfZen0vQ/OUgXWYVPnMWgDk8fGBsZKvUbfvNIaPrMSb1GL+PTtHz81nb5oZrxWtD3ezpHiI6rrPn4BAAD4h+gqKPoOjjEfEt6/jNloOiDzWtqyuu81GSn2zKxXBNHDkxQWckyv3vhTGMjBF2CVYU+3n4jnJqq5fR8cKdrC7Pz3SxcU0MEP5llJ+iqSfTSwVhc6W9NktHHHIcCa8iU+jP4hqfileVyNUU5Pk5kInr5CrO08jPVsnRPAyevsCkHmOX1MGTUtgRnM7y+G50kh1cXuBjJpbgzPkZh89lJ9dLm1by1St30/PqxkzTFREdn16QNBPXxPVrysj1Kvw5rjOpJ5/REEX0mwH6zQARs4y6xLO23G8GSKTN6Xji8n3hmliPJWjsOMbanQdt3QrOUCVGqBIjrBYnCDBuy1ViBDltZF4Jrolrmg7xzhcDjF+cs3XpFTH/btP5Z2nnm6thx47S5pGbncP5KrDePxrqaX6uEaviplDoVK4cG5bNRHI0LTFeER9bpU0cuCv/7JuWzr6/51/btXwqrpSYpsdrRywRPjV2ukCeGQiFQql/9z//Fn8DordPlX3+aZAAAAAASUVORK5CYII=;fontSize=10;" vertex="1" parent="1">
          <mxGeometry x="600" y="323.84" width="30" height="26" as="geometry" />
        </mxCell>
        <mxCell id="gCfyBZNcQzsltZ1017RK-22" value="" style="shape=image;verticalLabelPosition=bottom;labelBackgroundColor=default;verticalAlign=top;aspect=fixed;imageAspect=0;image=data:image/png,iVBORw0KGgoAAAANSUhEUgAAADYAAAAQCAYAAABdsIz2AAAAAXNSR0IArs4c6QAAAARnQU1BAACxjwv8YQUAAAAJcEhZcwAADsMAAA7DAcdvqGQAAAG9SURBVEhL7ZUxbhRBEEV/9Sm6ViLAkfcIJEjIxoGvsAksASdYkYFkIuSUdE3kKzgwtpAQd7AjIwtpq0/Rn2C7R01pZu1JkIN50ko7/1fPdFVXzQATE08C8UIlxvgRAFJKJzHGtYgsAczN7Nb7qroP4KauFZHlZrP5FmNchxB+lf9XInLgYwDAryd5nVI69Gs8Nc7rABC8MATJa5Irr2PrfQVwZGZiZlI33EMXk3NexBjXjfe7em6z86rXH4A5ybOhpDAmsRDCuYi8KtX9BxHZA/DH67tIKR0O3c+jqnftNcmViJy2mufRiRXel9PxHAO4iTFeeWMXJH8AeFYun6sqVZXuJAHguHj7s9nsLYD7OhJDjErMzL4DuFfV106/NTMJIZzXDbT+I2lb8V1r1PsDuMg5L1JKJ63fx6jEsG27U5IfvA4AZbaOhmbRIyLLUqwHqcUSkQNf2D5GJ1Za4CeAl1VrW5Dkiy54B6p6R/KT1/so7XdhZnvl5C6LNsjoxFBe8eWFAWyr+KXOh4i88a3UcNnEfXYt1c2YqrKKJFc554WZdc8zMyF51q3sYfA79hR46DtW5rJLeGJi4v/xF6Gm+SJBmVyMAAAAAElFTkSuQmCC;" vertex="1" parent="1">
          <mxGeometry x="620" y="256.5" width="54" height="16" as="geometry" />
        </mxCell>
        <mxCell id="gCfyBZNcQzsltZ1017RK-23" value="数据库服务器" style="shape=image;verticalLabelPosition=bottom;labelBackgroundColor=none;verticalAlign=top;imageAspect=0;image=data:image/png,iVBORw0KGgoAAAANSUhEUgAAABgAAAAUCAYAAACXtf2DAAAAAXNSR0IArs4c6QAAAARnQU1BAACxjwv8YQUAAAAJcEhZcwAADsMAAA7DAcdvqGQAAAGgSURBVEhLtZNPKARRHMe/bwZjNbOstUiEssU4uKzI1UEpjpSLErmQFEmtNCSH3ZRoD/5c5KIcHLhx40Cbi1xsLRc1+S+72p39Mw67O9nXTs3Ifurb6337vt+39+oBeYYAwOTkOucH5w1EhD5FJTwdMgrPxOWu0qflQ8/MQcYjADA1t9qw+1x/raDAlnXiD3BM/ONrZ0ibk7rB/Iq4JTtvVAImKw2AZQi2R9ppGyM7V7SlMVF361iTpBcAqYEJliW5hgMAQwiisSRCkbimbyVBx3TJOZTmMviKaDypafM0QEd0MVTgEDg0VfKaLIWGjgFGC87vXuA7C2h6Cyl0RBdDBQMddfANuzTV2kvoiC6GCu6fw9i7eNBUU2ahI7oYKvAMtsHdL8LdL6KCL8J7+J+f6DeCpRBV1mLa1sV0QbdYhdneZtrWxXRBdWkxWmqstK2L6QKz5L2AAMD04mL5kdx48hgr6aQDZmDVZLSV/9z3b4yPZjySWlQytrDkCr7be2IFMP6LKGyMEnQKn8deSZIzXrogjapm781CCACotJ1XfgAwaH+oNXT/9AAAAABJRU5ErkJggg==;fontSize=10;" vertex="1" parent="1">
          <mxGeometry x="751.42" y="323.84" width="30" height="26" as="geometry" />
        </mxCell>
        <mxCell id="gCfyBZNcQzsltZ1017RK-24" value="&lt;font&gt;1&lt;/font&gt;" style="text;strokeColor=none;align=center;fillColor=none;html=1;verticalAlign=middle;whiteSpace=wrap;rounded=0;fontSize=10;" vertex="1" parent="1">
          <mxGeometry x="505" y="364" width="60" height="30" as="geometry" />
        </mxCell>
        <mxCell id="gCfyBZNcQzsltZ1017RK-25" value="&lt;font&gt;2&lt;/font&gt;" style="text;strokeColor=none;align=center;fillColor=none;html=1;verticalAlign=middle;whiteSpace=wrap;rounded=0;fontSize=10;" vertex="1" parent="1">
          <mxGeometry x="736.42" y="364" width="60" height="30" as="geometry" />
        </mxCell>
      </root>
    </mxGraphModel>
  </diagram>
</mxfile>
